Coordinates
version=1
nRows=26
nColumns=24
inDegrees=yes

Units are S.I. units (second, meters, Newtons, ...)
Angles are in degrees.

endheader
time	pelvis_tilt	pelvis_list	pelvis_rotation	pelvis_tx	pelvis_ty	pelvis_tz	hip_flexion_r	hip_adduction_r	hip_rotation_r	knee_angle_r	ankle_angle_r	subtalar_angle_r	mtp_angle_r	hip_flexion_l	hip_adduction_l	hip_rotation_l	knee_angle_l	ankle_angle_l	subtalar_angle_l	mtp_angle_l	lumbar_extension	lumbar_bending	lumbar_rotation
      4.63000000	      8.64380428	      3.16621121	      8.04688747	      1.86663846	      0.90211588	     -0.33277230	    -21.57390746	      2.00052988	    -15.43673601	    -29.09402335	      9.06695227	     14.45054710	      0.00000000	      8.44011645	      9.86190609	      9.16170131	     -8.97689422	      3.16067742	    -13.34326724	      0.00000000	    -25.76082745	      0.06835793	      0.55058722
      4.64000000	      8.56376282	      3.67134251	      8.30715808	      1.88250587	      0.90192428	     -0.33400692	    -19.15769084	      0.49829060	    -15.81668699	    -34.31848067	      5.98133075	     15.25477749	      0.00000000	      9.02749314	     10.57252338	      8.10136385	    -11.82524595	      5.14512289	    -11.65059922	      0.00000000	    -25.92990474	     -0.15280211	     -0.52267909
      4.65000000	      8.44925531	      4.12092845	      8.82148130	      1.89721699	      0.90159554	     -0.33523430	    -16.48697057	     -0.86214441	    -16.04115420	    -39.53762853	      3.42286279	     16.15465271	      0.00000000	      9.88688045	     11.20025753	      7.22671423	    -15.06470591	      7.72175706	     -9.46515798	      0.00000000	    -26.25661106	     -0.23109779	     -1.75679394
      4.66000000	      8.25439189	      4.49065084	      9.44790252	      1.91102605	      0.90113645	     -0.33636653	    -13.58089920	     -2.09388296	    -16.04994321	    -44.61456781	      1.73803213	     17.23359830	      0.00000000	     10.79208821	     11.72965736	      6.72628415	    -18.17725195	     10.17329857	     -7.55694167	      0.00000000	    -26.62476921	     -0.18434212	     -3.08690026
      4.67000000	      8.04082802	      4.79809016	     10.02344181	      1.92442585	      0.90077942	     -0.33734682	    -10.61668265	     -3.23769588	    -15.83273529	    -49.34824573	      1.09215822	     18.39505562	      0.00000000	     11.43722961	     12.16983000	      6.58317201	    -20.76776707	     12.40223196	     -6.08391407	      0.00000000	    -27.00914541	     -0.07241037	     -4.35908135
      4.68000000	      7.81917857	      5.07880502	     10.22188484	      1.93809190	      0.90076343	     -0.33790932	     -7.65269475	     -4.36737773	    -15.17840356	    -53.61490087	      1.45053973	     19.48613107	      0.00000000	     11.62865481	     12.49575326	      6.47192580	    -22.52944475	     14.30238538	     -5.12371721	      0.00000000	    -27.31448444	     -0.05843864	     -5.31882797
      4.69000000	      7.62836132	      5.40087671	      9.71362212	      1.95269282	      0.90136048	     -0.33771410	     -4.74766770	     -5.51304966	    -13.81099043	    -57.30589240	      2.54672587	     20.27934364	      0.00000000	     11.18617812	     12.69010627	      6.00832447	    -23.23145426	     15.85009088	     -4.55352662	      0.00000000	    -27.49187232	     -0.34941168	     -5.83609038
      4.70000000	      7.51628249	      5.74133345	      8.36498595	      1.96850767	      0.90266185	     -0.33664030	     -1.92909450	     -6.58525453	    -11.67835360	    -60.36455954	      4.09070298	     20.64635641	      0.00000000	     10.06055435	     12.73779267	      5.05259005	    -22.86414405	     17.04754682	     -4.44240237	      0.00000000	    -27.53570843	     -0.97115153	     -5.68853126
      4.71000000	      7.54061891	      6.02651810	      6.33700643	      1.98535539	      0.90467202	     -0.33484088	      0.73006216	     -7.39439022	     -8.94641726	    -62.73371355	      5.76035421	     20.48163672	      0.00000000	      8.24358987	     12.67447270	      3.79621796	    -21.50894909	     17.82990379	     -4.80585736	      0.00000000	    -27.49872520	     -1.76952095	     -5.04980956
      4.72000000	      7.49933850	      6.13031408	      4.08945248	      2.00268322	      0.90693829	     -0.33283306	      3.39150930	     -7.81192213	     -6.10302809	    -64.44895656	      7.49461040	     19.92652786	      0.00000000	      6.12359684	     12.53981741	      2.62247378	    -19.47541858	     18.28431002	     -5.46345064	      0.00000000	    -27.18907031	     -2.44926912	     -4.16612253
      4.73000000	      7.36306974	      6.02217745	      2.04900189	      2.01981458	      0.90929925	     -0.33109958	      5.99704925	     -7.82773647	     -3.59256335	    -65.53895411	      9.10267955	     18.98527402	      0.00000000	      3.87456921	     12.39858835	      2.13572823	    -17.02908992	     18.07710307	     -6.89777700	      0.00000000	    -26.72851341	     -2.80004546	     -3.37806637
      4.74000000	      7.27707734	      5.68259073	      0.48062809	      2.03636190	      0.91187137	     -0.32986969	      8.28282287	     -7.48122409	     -1.71986324	    -65.98891153	     10.52176485	     17.75263619	      0.00000000	      1.47618968	     12.16396194	      2.47103660	    -14.43624689	     17.34224355	     -8.98088650	      0.00000000	    -26.41889253	     -2.69688460	     -2.94294933
      4.75000000	      7.04281907	      5.15337761	     -0.51756979	      2.05226615	      0.91430350	     -0.32920036	     10.45048952	     -6.89817074	     -0.55961340	    -65.88083623	     11.73680338	     16.24231431	      0.00000000	     -0.74049659	     11.78957941	      3.60413601	    -11.92699179	     16.18872037	    -11.53500364	      0.00000000	    -26.07428413	     -2.18918842	     -2.89611033
      4.76000000	      6.75248974	      4.52041016	     -1.04444339	      2.06770809	      0.91661692	     -0.32893451	     12.40065780	     -6.21711507	     -0.00401560	    -65.24738887	     12.80714810	     14.55329873	      0.00000000	     -2.86184774	     11.27899905	      5.38813084	     -9.52267537	     14.60307241	    -14.56605474	      0.00000000	    -25.78539827	     -1.42084939	     -3.21988852
      4.77000000	      6.40780554	      3.83092593	     -1.26086073	      2.08290038	      0.91870030	     -0.32885318	     14.16980247	     -5.50451052	      0.12298773	    -64.14165705	     13.74350064	     12.75196223	      0.00000000	     -4.87432128	     10.62806073	      7.56233736	     -7.23029837	     12.62715703	    -17.98163179	      0.00000000	    -25.50867039	     -0.51279682	     -3.74892897
      4.78000000	      6.00010192	      3.12337888	     -1.26454331	      2.09798574	      0.92045117	     -0.32882147	     15.79489283	     -4.80967113	     -0.06843569	    -62.60733909	     14.55426975	     10.88653775	      0.00000000	     -6.75197052	      9.85073500	      9.88562024	     -5.05767933	     10.38515816	    -21.56617113	      0.00000000	    -25.20172243	      0.45357452	     -4.43760185
      4.79000000	      5.53117978	      2.46849524	     -1.14560055	      2.11301081	      0.92179546	     -0.32872075	     17.31621454	     -4.20499296	     -0.46559736	    -60.70493216	     15.27324118	      9.03795172	      0.00000000	     -8.45855593	      9.02604213	     12.05366878	     -3.04180420	      8.04198796	    -25.00155790	      0.00000000	    -24.84434140	      1.36324681	     -5.25987049
      4.80000000	      5.01362087	      1.90883272	     -0.98644442	      2.12797723	      0.92272333	     -0.32845353	     18.75334212	     -3.71636231	     -0.96184756	    -58.47853435	     15.91790546	      7.28257354	      0.00000000	     -9.97300542	      8.23180118	     13.77963089	     -1.22460833	      5.85791953	    -27.90751686	      0.00000000	    -24.44299484	      2.13870981	     -6.14342417
      4.81000000	      4.47997202	      1.46405847	     -0.83807826	      2.14290135	      0.92329154	     -0.32799948	     20.07911386	     -3.35761625	     -1.50450475	    -55.94353441	     16.53480743	      5.73150018	      0.00000000	    -11.33248173	      7.53148370	     15.00427823	      0.39001564	      4.00251068	    -30.13899238	      0.00000000	    -24.03694118	      2.74821408	     -7.05914322
      4.82000000	      3.96482564	      1.12398320	     -0.74254232	      2.15780584	      0.92357419	     -0.32734601	     21.24966528	     -3.09248125	     -2.03644916	    -53.09845498	     17.15010456	      4.46131705	      0.00000000	    -12.58104002	      6.95182214	     15.73003413	      1.80000001	      2.55068163	    -31.71872646	      0.00000000	    -23.66135838	      3.20359613	     -7.97239725
      4.83000000	      3.53471107	      0.84203764	     -0.74576200	      2.17273347	      0.92373549	     -0.32646695	     22.16770744	     -2.84766368	     -2.52975598	    -49.90922439	     17.62300294	      3.46763624	      0.00000000	    -13.79024767	      6.48465143	     15.73177916	      2.99649866	      1.58742542	    -32.29900899	      0.00000000	    -23.40013006	      3.54693790	     -8.74813346
      4.84000000	      3.15761541	      0.59743208	     -0.80347923	      2.18773802	      0.92366785	     -0.32547700	     22.85139551	     -2.61357454	     -3.02921130	    -46.40421308	     18.16199000	      2.95065410	      0.00000000	    -14.98086072	      6.08392183	     15.73426234	      4.04470814	      0.66225566	    -32.99073438	      0.00000000	    -23.19437602	      3.83056228	     -9.46901722
      4.85000000	      2.91158448	      0.39970306	     -0.92476953	      2.20284209	      0.92354966	     -0.32437488	     23.19585428	     -2.38345557	     -3.50988281	    -42.57510840	     18.54948834	      2.83177119	      0.00000000	    -16.17942501	      5.79799123	     15.30472768	      4.84014210	      0.26812514	    -32.85030959	      0.00000000	    -23.14056142	      4.03859420	    -10.08145794
      4.86000000	      2.85849465	      0.24173958	     -1.11847534	      2.21808148	      0.92338546	     -0.32315742	     23.13783874	     -2.13932469	     -3.95476170	    -38.48008184	     18.93055745	      3.14284136	      0.00000000	    -17.48708110	      5.60507250	     14.81688571	      5.44084303	     -0.14823469	    -32.78117404	      0.00000000	    -23.30518381	      4.17334527	    -10.53992937
      4.87000000	      2.90836033	      0.13748437	     -1.36120643	      2.23348310	      0.92306628	     -0.32183169	     22.78981012	     -1.88831239	     -4.33981741	    -34.20248301	     19.17533129	      3.89688279	      0.00000000	    -18.77996139	      5.51273293	     14.36133347	      5.79225691	     -0.50199409	    -32.70177610	      0.00000000	    -23.56401783	      4.21985566	    -10.88901395
      4.88000000	      3.06782455	      0.11598269	     -1.65544622	      2.24906736	      0.92259463	     -0.32037033	     22.17686160	     -1.65360804	     -4.61513916	    -29.85536834	     19.28177532	      5.00471503	      0.00000000	    -20.04663752	      5.55354628	     13.95656974	      5.86223759	     -0.78587773	    -32.61899916	      0.00000000	    -23.91258200	      4.13399755	    -11.11996327
